<svg width="38" height="38" viewBox="0 0 38 38" fill="none" xmlns="http://www.w3.org/2000/svg">
<path fill-rule="evenodd" clip-rule="evenodd" d="M12.6666 9.5C12.6666 6.00219 15.5021 3.16666 18.9999 3.16666H27.7083C31.6433 3.16666 34.8333 6.35663 34.8333 10.2917V27.7083C34.8333 31.6434 31.6433 34.8333 27.7083 34.8333H18.9999C15.5021 34.8333 12.6666 31.9978 12.6666 28.5V26.9167C12.6666 26.0422 13.3755 25.3333 14.2499 25.3333C15.1244 25.3333 15.8333 26.0422 15.8333 26.9167V28.5C15.8333 30.2489 17.251 31.6667 18.9999 31.6667H27.7083C29.8944 31.6667 31.6666 29.8945 31.6666 27.7083V10.2917C31.6666 8.10554 29.8944 6.33333 27.7083 6.33333H18.9999C17.251 6.33333 15.8333 7.7511 15.8333 9.5V11.0833C15.8333 11.9578 15.1244 12.6667 14.2499 12.6667C13.3755 12.6667 12.6666 11.9578 12.6666 11.0833V9.5ZM19.4637 13.1304C20.082 12.5121 21.0845 12.5121 21.7028 13.1304L26.4528 17.8804C27.0712 18.4987 27.0712 19.5013 26.4528 20.1196L21.7028 24.8696C21.0845 25.4879 20.082 25.4879 19.4637 24.8696C18.8453 24.2513 18.8453 23.2487 19.4637 22.6304L21.5107 20.5833L7.91659 20.5833C7.04213 20.5833 6.33325 19.8744 6.33325 19C6.33325 18.1255 7.04213 17.4167 7.91659 17.4167L21.5107 17.4167L19.4637 15.3696C18.8453 14.7513 18.8453 13.7487 19.4637 13.1304Z" fill="#8F2247"/>
</svg>
